<svg width="100" height="100" fill="none" xmlns="http://www.w3.org/2000/svg"><g clip-path="url(#clip0)" fill="#000"><path d="M96.925 55.43a5.614 5.614 0 00-3.845-1.978 5.613 5.613 0 00-4.118 1.32l-.757.642a5.617 5.617 0 00-1.236-2.568 5.657 5.657 0 00-7.963-.657l-.674.571a5.657 5.657 0 00-9.187-3.146l-11.3 9.576a6.685 6.685 0 00-1.823-.254h-20.3a24.019 24.019 0 00-12.857 3.724 24.019 24.019 0 00-8.875 10.02l-.692 1.458L2.053 88.333a1.47 1.47 0 102.304 1.826l11.35-14.327c.07-.087.128-.182.176-.283l.763-1.609c3.476-7.328 10.964-12.064 19.075-12.064h20.302a3.768 3.768 0 013.763 3.765 3.737 3.737 0 01-1.132 2.691 3.731 3.731 0 01-2.627 1.073l-13.222-.002a1.47 1.47 0 000 2.94h13.087a6.658 6.658 0 005.336-2.479H73.65a5.599 5.599 0 003.616-1.326l13.597-11.523a2.691 2.691 0 011.975-.633c.721.06 1.376.396 1.845.949.467.552.692 1.253.633 1.975a2.693 2.693 0 01-.949 1.844L72.903 79.34a13.333 13.333 0 01-7.046 3.075l-3.875.466a1.47 1.47 0 10.351 2.919l3.875-.466a16.262 16.262 0 008.596-3.75l21.464-18.19a5.612 5.612 0 001.978-3.846 5.613 5.613 0 00-1.32-4.118zm-25.88-3.572a2.714 2.714 0 013.82.315 2.699 2.699 0 01-.072 3.586L62.717 65.993a6.686 6.686 0 00-2.139-5.265l10.468-8.87zm-4.879 15.066l14.74-12.492a2.713 2.713 0 013.82.315c.468.553.693 1.254.634 1.976a2.693 2.693 0 01-.95 1.844l-9.045 7.728a2.656 2.656 0 01-1.716.63h-7.483z"/><path d="M55.718 83.634l-13.829 1.664a1.47 1.47 0 00-.953.517l-9.834 11.773a1.47 1.47 0 102.257 1.884l9.46-11.325 13.25-1.594a1.47 1.47 0 10-.352-2.919zM26.229 44.721h3.518L32 49.787a2.774 2.774 0 002.565 1.665 2.774 2.774 0 002.565-1.666l2.255-5.065h7.53a1.47 1.47 0 100-2.94H38.43a1.47 1.47 0 00-1.343.873l-2.522 5.664-2.522-5.664a1.47 1.47 0 00-1.343-.873h-4.473c-5.04 0-9.142-4.1-9.142-9.142V12.082c0-5.04 4.102-9.142 9.143-9.142h33.013c5.041 0 9.142 4.101 9.142 9.142V32.64c0 5.041-4.1 9.142-9.142 9.142H53.18a1.47 1.47 0 100 2.94h6.062c6.662 0 12.082-5.42 12.082-12.082V12.082C71.324 5.42 65.904 0 59.242 0H26.229c-6.663 0-12.083 5.42-12.083 12.082V32.64c0 6.662 5.42 12.082 12.082 12.082z"/><path d="M33.53 14.024a1.47 1.47 0 00-2.048.358 13.659 13.659 0 00-2.492 7.889c0 7.579 6.166 13.745 13.745 13.745 7.58 0 13.746-6.166 13.746-13.745 0-2.127-.486-4.142-1.352-5.94l4.707-4.498a1.47 1.47 0 10-2.032-2.126l-4.268 4.078c-2.518-3.2-6.422-5.26-10.8-5.26-2.06 0-4.043.447-5.894 1.326a1.47 1.47 0 001.262 2.656 10.706 10.706 0 014.631-1.041c3.544 0 6.695 1.715 8.667 4.36L42.23 24.59l-1.848-1.848a1.47 1.47 0 10-2.079 2.079l2.864 2.864a1.466 1.466 0 002.056.024l9.636-9.21c.44 1.175.681 2.446.681 3.772 0 5.958-4.847 10.805-10.805 10.805-5.958 0-10.805-4.847-10.805-10.805 0-2.232.677-4.375 1.958-6.2a1.47 1.47 0 00-.358-2.048z"/></g><defs><clipPath id="clip0"><path fill="#fff" d="M0 0h100v100H0z"/></clipPath></defs></svg>