<svg width="126" height="90" fill="none" xmlns="http://www.w3.org/2000/svg"><path d="M115.422 48.562l-12.032 4.38a169.074 169.074 0 00-2.184-17.788l21.787-7.205c1.827-.605 3.007-2.238 3.007-4.162 0-1.923-1.18-3.557-3.007-4.16L65.173.504a6.962 6.962 0 00-4.346 0L3.007 19.626C1.18 20.23 0 21.864 0 23.788s1.18 3.557 3.007 4.16l21.784 7.205c-.55 3.08-1.023 6.283-1.408 9.543a1.846 1.846 0 103.666.433c.355-3.004.786-5.957 1.284-8.805l5.869 1.941v4.591c-2.953.811-5.13 3.518-5.13 6.725 0 1.933.792 3.685 2.067 4.95-.935 3.417-1.656 7.422-2.16 11.987a34.862 34.862 0 01-2.825-1.785.7.7 0 01-.292-.579c.026-3.645.171-7.347.43-11.004a1.846 1.846 0 10-3.682-.26 178.415 178.415 0 00-.44 11.237 4.395 4.395 0 001.851 3.619c.925.654 2.45 1.65 4.582 2.776-.313 3.996-.48 8.363-.5 13.086a3.073 3.073 0 002.31 2.99c1.208.312 3.168.684 5.635.684 2.466 0 4.426-.372 5.635-.684a3.073 3.073 0 002.31-2.99 197.98 197.98 0 00-.165-7.404 89.855 89.855 0 007.743 1.583c.07 1.45.385 2.981.93 4.481.867 2.38 2.231 4.448 3.842 5.822 1.35 1.15 2.823 1.751 4.217 1.751.484 0 .959-.076 1.416-.224.053-.014.105-.03.158-.05l28.528-10.383.005-.002c1.12-.407 2.094-.404 2.975.01 2.011.942 3.214 3.78 3.637 4.958a3.049 3.049 0 001.587 1.74 3.065 3.065 0 002.358.105l8.47-3.084a3.082 3.082 0 001.822-1.786 3.06 3.06 0 00-.144-2.525c-1.188-2.259-3.043-3.945-5.439-4.975l2.948-1.073a1.845 1.845 0 10-1.263-3.47l-5.05 1.84c.266-1.954.013-4.247-.834-6.574-.817-2.244-2.077-4.209-3.568-5.578l18.517-6.74c1.099-.4 3.552 1.387 4.902 5.093.642 1.765.87 3.607.627 5.055-.179 1.063-.593 1.81-1.109 1.997l-5.776 2.102a1.847 1.847 0 001.263 3.469l5.776-2.102c1.807-.658 3.078-2.427 3.486-4.854.352-2.088.068-4.55-.798-6.93-1.947-5.349-6.178-8.555-9.632-7.298zm-79.374-2.264a3.287 3.287 0 013.283 3.283 3.287 3.287 0 01-3.283 3.283 3.287 3.287 0 01-3.284-3.283 3.287 3.287 0 013.284-3.284zm0 37.293c-1.838 0-3.333-.25-4.251-.456.086-13.39 1.417-21.785 2.675-26.761a6.97 6.97 0 003.151 0c1.257 4.97 2.589 13.366 2.675 26.761-.918.206-2.413.456-4.25.456zm4.908-29.06a6.953 6.953 0 002.066-4.95c0-3.207-2.176-5.914-5.129-6.725v-3.37l22.934 7.584c.7.232 1.436.348 2.173.348.736 0 1.472-.116 2.172-.348l14.952-4.944a1.846 1.846 0 00-1.16-3.505l-14.95 4.944a3.248 3.248 0 01-2.028 0l-21.75-7.192 17.137-11.34c.077.039.152.079.232.116 1.37.64 3.177.966 5.37.966 2.194 0 4.001-.325 5.372-.966 1.912-.894 2.965-2.422 2.965-4.302 0-3.523-3.662-6.283-8.336-6.283-4.675 0-8.336 2.76-8.336 6.283 0 .5.077.975.222 1.42l-19.086 12.63-31.61-10.453c-.413-.136-.475-.47-.475-.656 0-.187.062-.52.475-.657l57.82-19.12a3.248 3.248 0 012.028 0l57.82 19.12c.413.137.475.47.475.657 0 .186-.062.52-.475.656L86.741 36.05a1.846 1.846 0 001.159 3.505l9.768-3.23c.996 5.706 1.721 11.858 2.114 17.931l-16.065 5.847h-.001L55.189 70.486l-.008.004c-1.484.543-2.604 1.837-3.182 3.629a85.05 85.05 0 01-8.377-1.78c-.462-7.044-1.353-13.006-2.666-17.807zM58.33 20.847c0-1.223 1.986-2.591 4.645-2.591 2.658 0 4.645 1.368 4.645 2.59 0 1.084-2.408 1.577-4.645 1.577-2.237 0-4.645-.493-4.645-1.576zm28.781 43.541c1.118.953 2.127 2.511 2.769 4.276.642 1.764.87 3.606.627 5.054-.179 1.063-.593 1.81-1.108 1.997l-23.726 8.636c.262-2.008-.036-4.323-.853-6.567-.816-2.243-2.076-4.209-3.567-5.578l23.726-8.635c.514-.188 1.312.118 2.132.817zM55.97 81.006c-.642-1.764-.87-3.606-.627-5.054.179-1.063.593-1.81 1.108-1.997l.001-.001c.1-.036.21-.054.329-.054.495 0 1.142.308 1.803.872 1.117.952 2.126 2.51 2.768 4.275.642 1.764.871 3.606.627 5.054-.178 1.063-.593 1.81-1.108 1.997-.514.188-1.312-.118-2.133-.817-1.117-.953-2.126-2.51-2.768-4.275zm51.768-1.31l-7.206 2.623c-.642-1.614-1.8-3.858-3.656-5.397l1.97-.716c1.004-.1 6.312-.422 8.892 3.49zm-12.24-18.36c1.117.953 2.126 2.511 2.768 4.276 1.348 3.705.617 6.65-.48 7.05l-3.584 1.305c.262-2.007-.036-4.322-.853-6.566-.816-2.243-2.075-4.21-3.567-5.578l3.583-1.304c.516-.187 1.312.118 2.132.818z" fill="#000"/></svg>