<svg width="40" height="40" viewBox="0 0 40 40" fill="none" xmlns="http://www.w3.org/2000/svg">
<path d="M37.7897 0.000976562H2.20766C0.989232 0.000976562 0 0.988249 0 2.20867V37.7913C0 39.0117 0.989232 40.0003 2.20766 40.0003H21.364V24.5102H16.1517V18.4726H21.364V14.0204C21.364 8.85481 24.5181 6.04053 29.127 6.04053C31.3366 6.04053 33.2315 6.20584 33.784 6.27763V11.677L30.5871 11.6783C28.0811 11.6783 27.5977 12.8698 27.5977 14.6171V18.4707H33.5766L32.7948 24.5076H27.5971V39.9983H37.789C39.0088 39.9983 39.9987 39.0084 39.9987 37.7913V2.20736C39.998 0.988249 39.0094 0.000976562 37.7897 0.000976562Z" fill="black"/>
</svg>
