<svg width="40" height="40" fill="none" xmlns="http://www.w3.org/2000/svg"><path d="M23.516 20a3.516 3.516 0 11-7.032 0 3.516 3.516 0 017.032 0z" fill="#000"/><path d="M25.938 9.375H14.063a4.693 4.693 0 00-4.688 4.688v11.874a4.693 4.693 0 004.688 4.688h11.874a4.693 4.693 0 004.688-4.688V14.063a4.693 4.693 0 00-4.688-4.687zM20 25.859A5.866 5.866 0 0114.14 20c0-3.23 2.63-5.86 5.86-5.86 3.23 0 5.86 2.63 5.86 5.86 0 3.23-2.63 5.86-5.86 5.86zm6.719-11.406a1.172 1.172 0 110-2.344 1.172 1.172 0 010 2.344z" fill="#000"/><path d="M29.453 0H10.547C4.73 0 0 4.731 0 10.547v18.906C0 35.27 4.731 40 10.547 40h18.906C35.27 40 40 35.269 40 29.453V10.547C40 4.73 35.269 0 29.453 0zm3.516 25.938a7.04 7.04 0 01-7.032 7.03H14.063a7.04 7.04 0 01-7.03-7.03V14.063a7.04 7.04 0 017.03-7.032h11.876a7.04 7.04 0 017.03 7.032v11.874z" fill="#000"/></svg>