<svg width="100" height="100" fill="none" xmlns="http://www.w3.org/2000/svg"><g clip-path="url(#clip0)" fill="#000"><path d="M49.415 16.54H69.79a1.465 1.465 0 100-2.93H49.415a1.465 1.465 0 100 2.93zm0 7.108H69.79a1.465 1.465 0 100-2.93H49.415a1.465 1.465 0 100 2.93zm0 7.108H69.79a1.465 1.465 0 100-2.93H49.415a1.465 1.465 0 100 2.93zM28.419 43.507c0 .81.655 1.465 1.465 1.465h18.423a1.465 1.465 0 100-2.93H29.884c-.81 0-1.465.656-1.465 1.465zm1.465 5.643a1.465 1.465 0 100 2.93h34.048a1.465 1.465 0 100-2.93H29.884zm0 31.364H69.79a1.465 1.465 0 100-2.93H29.884a1.465 1.465 0 100 2.93zm0 7.108H69.79a1.465 1.465 0 100-2.93H29.884a1.465 1.465 0 100 2.93z"/><path d="M96.74 15.436a6.499 6.499 0 00-8.88 2.392l-1.588 2.759-4.537 7.882V10.51c0-5.754-4.68-10.434-10.434-10.434H10.435C4.68.077 0 4.757 0 10.51v4.958a1.465 1.465 0 102.93 0V10.51c0-4.138 3.366-7.505 7.505-7.505 4.138 0 7.504 3.367 7.504 7.505v18.216H4.372a1.444 1.444 0 01-1.442-1.443v-5.838a1.465 1.465 0 10-2.93 0v5.838a4.377 4.377 0 004.372 4.372h13.567V97.08a2.848 2.848 0 002.845 2.844h14.978a1.465 1.465 0 100-2.93H20.869V10.511c0-2.944-1.228-5.606-3.196-7.505h53.628c4.138 0 7.505 3.367 7.505 7.505v23.047L65.739 56.26H29.884a1.465 1.465 0 100 2.93h34.168l-2.405 4.178H29.884a1.465 1.465 0 100 2.93H60.37l-.124 4.179H29.884a1.465 1.465 0 100 2.93H60.16a3.166 3.166 0 001.587 2.822 3.165 3.165 0 003.254-.055l6.351-3.946c.2-.125.38-.311.496-.514l6.958-12.086v37.367H41.619a1.465 1.465 0 100 2.93H78.89a2.848 2.848 0 002.844-2.845V54.793c0-.076-.007-.15-.019-.223l8.926-15.507a1.465 1.465 0 10-2.539-1.461L70.04 68.982l-6.192-3.564 24.232-42.1 6.193 3.565-3.248 5.643a1.465 1.465 0 102.539 1.461l3.979-6.913 1.588-2.759a6.5 6.5 0 00-2.392-8.879zM90.4 19.29a3.57 3.57 0 014.878-1.314 3.571 3.571 0 011.314 4.879l-.857 1.49-6.193-3.565.857-1.49zM63.454 73.684a.22.22 0 01-.246.004.222.222 0 01-.12-.215l.15-5.026 4.487 2.584-4.27 2.653z"/><path d="M35.835 11.715a2.497 2.497 0 00-3.525 0l-4.897 4.897a2.505 2.505 0 00-.507 2.793l4.897 10.787a2.466 2.466 0 002.27 1.463c.99 0 1.86-.56 2.27-1.462l4.896-10.787a2.504 2.504 0 00-.507-2.794l-4.897-4.897zm-1.762 16.39l-4.374-9.635 4.374-4.374 4.374 4.374-4.374 9.635z"/></g><defs><clipPath id="clip0"><path fill="#fff" d="M0 0h100v100H0z"/></clipPath></defs></svg>