<svg width="45" height="61" fill="none" xmlns="http://www.w3.org/2000/svg"><path fill-rule="evenodd" clip-rule="evenodd" d="M6.893 0a.49.49 0 01.448.35l1.237 4.12 2.364-2.363a.49.49 0 01.823.466L9.954 9.816h2.316c.271 0 .491.22.491.491v3.436a.49.49 0 01-.49.49H9.815v5.816l6.294 20.333 1.689.767c-.244-1.988-.371-4.435-.198-6.828.186-2.554.716-5.106 1.86-6.97.577-.938 1.317-1.715 2.26-2.22.936-.503 3.31-.59 3.325-.592 2.44 0 4.728 1.05 5.945 2.922 1.198 1.844 1.697 4.34 1.807 6.874.128 2.934-.261 6.003-.772 8.365h.858a.49.49 0 01.39.193l6.38 8.344a.49.49 0 01-.117.706l-2.564 1.71 3.7 6.473a.49.49 0 01-.427.734H11.29a.49.49 0 01-.491-.49v-3.26L6.49 51.845a.49.49 0 010-.622l3.073-3.755-1.705-10.58a.49.49 0 11.97-.156l1.566 9.72 4.764-5.823-6.182-19.973c-.803.077-1.517.052-2.149-.06l2 12.702a.49.49 0 11-.97.152L5.79 20.308c-1.477-.58-2.29-1.725-2.679-2.954-.334-1.056-.362-2.185-.25-3.12H.49a.49.49 0 01-.49-.491v-3.436c0-.271.22-.49.49-.49h2.317L.997 2.572a.49.49 0 01.795-.492l2.915 2.5L6.416.308A.49.49 0 016.893 0zM3.82 9.816h5.123l1.44-5.762-1.691 1.692a.49.49 0 01-.817-.206l-1.07-3.562-1.441 3.603a.49.49 0 01-.775.19L2.322 3.83l1.497 5.987zm.032 4.417c-.117.848-.102 1.886.195 2.825.34 1.072 1.036 1.998 2.334 2.419.639.207 1.444.299 2.455.207v-5.45H3.85zM15.847 41.34L7.506 51.535l3.775 4.614 5.02-6.39a.49.49 0 11.773.607l-5.295 6.738v2.775h8.582l11.57-16.197H21.377l-2.31 3.696a.49.49 0 01-.832-.52l2.157-3.452-4.545-2.066zm5.364 1.36h9.81c.511-2.29.912-5.31.802-8.189-1.814-2.773-3.647-3.99-5.313-4.329-1.66-.337-3.261.176-4.669 1.094-1.002 1.519-1.908 3.698-1.629 5.496.138.888.563 1.688 1.437 2.301.89.623 2.28 1.078 4.386 1.174a.49.49 0 11-.044.98c-2.213-.1-3.81-.582-4.905-1.35-1.111-.779-1.669-1.825-1.844-2.954-.203-1.31.108-2.72.618-3.98a12.933 12.933 0 00-1.289 1.58c-.17 2.524-.002 5.11.281 7.105l2.36 1.072zm-2.45-10.012a12.724 12.724 0 012.455-2.175c1.562-1.042 3.458-1.705 5.489-1.293 1.668.339 3.351 1.388 4.965 3.404-.228-1.781-.7-3.394-1.503-4.628-1.034-1.592-2.634-2.587-5.113-2.474a.49.49 0 01-.074-.003c-1.126-.118-2.042.072-2.795.476-.757.406-1.38 1.045-1.887 1.87-.785 1.28-1.271 2.973-1.536 4.823zm14.137 11.329l5.659 7.4-2.51 1.673a.49.49 0 00-.074.061l-1.963 1.963a.49.49 0 00.694.695l1.509-1.51 3.188 5.58H21.568l11.33-15.862zM.982 10.797v2.455h10.797v-2.454H.982z" fill="#000"/><path fill-rule="evenodd" clip-rule="evenodd" d="M25.845 13.518a.49.49 0 01.485-.273l10.798.981a.495.495 0 01.325.166l6.871 7.853a.49.49 0 01-.416.812l-2.217-.211-2.413 5.745-.728 4.848a.49.49 0 11-.97-.146l.5-3.337-2.11 2.272a.49.49 0 01-.719-.668l3.131-3.372 2.285-5.44-1.577-.15-1.568 3.135a.49.49 0 01-.667.214L27.53 21.04a.491.491 0 01-.165-.729l1.962-2.615-3.4-3.626a.49.49 0 01-.082-.55zm4.164 4.904l-1.513 2.017 8.373 4.406 1.173-2.347-4.44-.423a.491.491 0 01-.312-.153l-3.281-3.5zm-2.483-4.083l6.353 6.777 8.894.847-5.93-6.777-9.317-.847z" fill="#CA0000"/><path d="M40.52 28.458a1.963 1.963 0 11-3.927 0 1.963 1.963 0 013.926 0z" fill="#CA0000"/></svg>