<svg width="29" height="29" viewBox="0 0 29 29" fill="none" xmlns="http://www.w3.org/2000/svg">
<path d="M28.2107 21.2831L24.1636 17.236C22.7183 15.7907 20.2611 16.3689 19.683 18.2478C19.2494 19.5487 17.804 20.2714 16.5032 19.9822C13.6124 19.2596 9.70994 15.5016 8.98726 12.4663C8.55365 11.1654 9.42087 9.72006 10.7217 9.2865C12.6007 8.70836 13.1788 6.25123 11.7335 4.80586L7.68642 0.758819C6.53013 -0.25294 4.79568 -0.25294 3.78393 0.758819L1.03772 3.50502C-1.70848 6.39576 1.3268 14.0562 8.12004 20.8495C14.9133 27.6427 22.5737 30.8226 25.4645 27.9318L28.2107 25.1856C29.2225 24.0293 29.2225 22.2948 28.2107 21.2831Z" fill="black"/>
</svg>
