<svg width="100" height="100" fill="none" xmlns="http://www.w3.org/2000/svg"><g clip-path="url(#clip0)" fill="#000"><path d="M86.579 27.02C93.99 27.02 100 21.012 100 13.6 100 6.187 93.99.177 86.579.177c-7.413 0-13.422 6.01-13.422 13.422.008 7.41 6.012 13.413 13.422 13.421zm0-23.487c5.559 0 10.066 4.507 10.066 10.066 0 5.56-4.507 10.066-10.066 10.066-5.56 0-10.066-4.506-10.066-10.066.004-5.557 4.508-10.06 10.066-10.066zM29.297 39.459a7.381 7.381 0 005.235-2.165L49.67 22.155 59.774 32.26a7.4 7.4 0 0010.465 0l.011-.01a7.41 7.41 0 000-10.462L55.6 7.142a8.387 8.387 0 00-11.861 0l-19.683 19.68a7.404 7.404 0 005.241 12.637zm-2.869-10.257L46.111 9.513a5.034 5.034 0 017.117 0l14.65 14.656a4.05 4.05 0 010 5.717l-.011.01a4.051 4.051 0 01-5.72 0L50.856 18.604a1.677 1.677 0 00-2.373 0L32.158 34.922a4.135 4.135 0 01-5.73-.01 4.05 4.05 0 010-5.71zM93.29 43.797H76.513v-8.389a1.676 1.676 0 00-2.864-1.186L63.583 44.288a1.678 1.678 0 00-.492 1.187v6.71a5.032 5.032 0 005.033 5.033H93.29a6.71 6.71 0 100-13.421zm0 10.066H68.124a1.678 1.678 0 01-1.678-1.678V46.17l6.711-6.71v6.015c0 .927.751 1.678 1.678 1.678H93.29a3.355 3.355 0 010 6.71zM42.502 65.775l-8.1-8.1a1.727 1.727 0 00-2.372 0L2.168 87.538a7.397 7.397 0 000 10.464v.008a7.405 7.405 0 0010.463 0l29.862-29.863a1.678 1.678 0 00.01-2.372zM10.264 95.638a4.047 4.047 0 01-5.718 0H4.54a4.04 4.04 0 010-5.718l28.675-28.687 5.727 5.73-28.678 28.675z"/><path d="M51.233 48.306a7.41 7.41 0 00-12.48 3.279 7.408 7.408 0 002.003 7.197l13.108 13.105-15.895 8.47a7.382 7.382 0 00-2.756 10.058l.238.44a7.442 7.442 0 006.445 3.717 7.253 7.253 0 003.621-.962L66.21 82.48l2.684-1.541a8.39 8.39 0 001.761-13.21L51.233 48.305zm18.48 26.025a4.995 4.995 0 01-2.485 3.691L43.886 90.675a4.055 4.055 0 01-5.509-1.458l-.24-.44a4.038 4.038 0 011.45-5.484l17.852-9.51a1.676 1.676 0 00.395-2.668L43.127 56.41a4.055 4.055 0 015.734-5.734l19.431 19.426a4.99 4.99 0 011.42 4.23z"/></g><defs><clipPath id="clip0"><path fill="#fff" d="M0 0h100v100H0z"/></clipPath></defs></svg>